<?xml version="1.0" standalone="no"?><!DOCTYPE svg PUBLIC "-//W3C//DTD SVG 1.1//EN" "http://www.w3.org/Graphics/SVG/1.1/DTD/svg11.dtd"><svg t="1562916003067" class="icon" viewBox="0 0 1024 1024" version="1.1" xmlns="http://www.w3.org/2000/svg" p-id="15992" width="325" height="325" xmlns:xlink="http://www.w3.org/1999/xlink"><defs><style type="text/css"></style></defs><path d="M512 512m-512 0a512 512 0 1 0 1024 0 512 512 0 1 0-1024 0Z" fill="#ECC756" p-id="15993"></path><path d="M624.64 768c56.32 15.36 117.76 30.72 168.96 40.96l-30.72 76.8c-81.92-25.6-158.72-51.2-230.4-76.8-10.24-5.12-25.6-10.24-35.84-10.24-143.36-5.12-261.12-117.76-261.12-332.8 0-204.8 112.64-343.04 281.6-343.04s271.36 138.24 271.36 327.68c-5.12 174.08-71.68 281.6-163.84 317.44zM337.92 471.04c0 133.12 61.44 250.88 174.08 250.88s174.08-117.76 174.08-256c0-128-56.32-250.88-168.96-250.88-128 0-179.2 128-179.2 256z" fill="#FFFFFF" p-id="15994"></path></svg>