<?xml version="1.0" standalone="no"?><!DOCTYPE svg PUBLIC "-//W3C//DTD SVG 1.1//EN" "http://www.w3.org/Graphics/SVG/1.1/DTD/svg11.dtd"><svg t="1562915053192" class="icon" viewBox="0 0 2219 1024" version="1.1" xmlns="http://www.w3.org/2000/svg" p-id="2210" width="216.69921875" height="100" xmlns:xlink="http://www.w3.org/1999/xlink"><defs><style type="text/css"></style></defs><path d="M1331.877831 432.424264l134.773352-229.907483 3.963922-3.963922s39.322107-7.61073 35.675299-43.603144c0 0-8.799907-48.795881-59.458832-31.711376 0 0-40.630202 20.057446-11.891766 63.422753v3.963923s-19.066465 58.467851-71.350598 63.422753c0 0-67.901986 11.891766-99.098053-39.639221 0 0-27.747455-39.401386-11.891767-87.206286 0 0 5.192738-14.626873 23.783533-27.747455 0 0 43.087833-31.473542 3.963922-79.278442 0 0-37.419425-36.904115-79.278442 7.927844 0 0-23.783533 33.693338 3.963922 67.386676 0 0 10.385476 44.594124-27.747455 71.350598 0 0-36.66628 42.612163-107.025897 15.855688 0 0-64.413734-22.277242-55.49491-103.061975v-3.963922s43.087833-18.590795 23.783533-55.494909c0 0-16.846669-35.913134-59.458832-11.891767 0 0-31.949212 23.307862 0 59.458832l-3.963922 265.582782s242.037084 87.206287 356.752991 99.098053z m-356.752991-83.242365a1248.635466 1248.635466 0 0 0 344.861224 95.134131l-15.855688 27.747455s-210.087872-28.540239-329.005536-91.170209z m-879.990709 221.979639a95.134131 95.134131 0 1 1-95.134131 95.13413 95.134131 95.134131 0 0 1 95.134131-95.13413z m174.412573-225.943561h150.62904v245.763171s18.82863 50.540007 59.458832 3.963922v-249.727093h146.665118v245.763171s25.765494 60.449812 59.458832-3.963922v-241.799249h150.62904v273.510626s-15.855688 117.926683-138.737274 146.665118c0 0-80.269423 15.855688-146.665118-59.458832a173.223396 173.223396 0 0 1-146.665118 59.458832s-117.926683-13.873727-134.773352-154.592962z m689.722448 59.458832s283.420431 91.170209 348.825146 95.13413l3.963922 31.711377 3.963922 233.871405h-154.592962v-221.979638s-19.819611-63.422754-83.242365-39.639221c0 0-51.055317 30.720396-23.783532 79.278442 0 0 13.873727 27.747455 51.530987 31.711377v150.62904s-138.737274 11.891766-198.196106-134.773352c0 0-54.503929-130.29412 51.530988-225.94356z m416.211822 107.025897s13.873727-154.077653 174.412573-166.484729c0 0 152.611001-16.846669 190.268262 162.520807v257.654937h-154.592963v-241.799249s-4.479232-25.765494-27.747455-23.783533c0 0-24.298843-3.210777-27.747455 23.783533v241.799249h-158.556884z m428.103588-7.927844a224.595827 224.595827 0 0 1 107.025897-134.773352c92.319746-42.453606 170.448651-11.891766 170.448651-11.891767 122.881586 45.30763 138.737274 170.448651 138.737274 170.448651v257.654938c-22.633995 182.340417-190.268262 221.979638-190.268261 221.979638-77.573956 22.633995-202.160028 15.855688-202.160028 15.855689v-150.629041c232.721867 23.783533 241.799249-91.170209 241.799249-91.170208v-233.871405c-10.742229-52.680525-59.458832-51.530987-59.458832-51.530988-49.271552-1.149537-59.458832 47.567065-59.458831 47.567066-0.554949 72.500135 59.458832 71.350598 59.458831 71.350598v150.62904c-253.691015-24.338482-206.12395-261.61886-206.12395-261.618859z" fill="#1296db" p-id="2211"></path></svg>